<svg viewBox="0 0 24 24" width="24" height="24" fill="currentColor" stroke="none" className="transition group-hover:fill-blue">
    <path fill-rule="evenodd" d="M8.445 18.013A2.4 2.4 0 0 1 10.6 20.4l-.012.245A2.4 2.4 0 0 1 8.2 22.8l-.246-.012a2.4 2.4 0 0 1-2.142-2.143L5.8 20.4A2.4 2.4 0 0 1 8.2 18l.245.013ZM8.2 19a1.4 1.4 0 1 0 0 2.801A1.4 1.4 0 0 0 8.2 19ZM17.045 18.013A2.401 2.401 0 0 1 19.2 20.4l-.012.245A2.401 2.401 0 0 1 16.8 22.8l-.246-.012a2.401 2.401 0 0 1-2.142-2.143l-.013-.245c0-1.325 1.075-2.4 2.4-2.4l.246.013ZM16.8 19a1.401 1.401 0 1 0 .001 2.802A1.401 1.401 0 0 0 16.8 19ZM2.252 3.122a.5.5 0 0 1 .625.33L3.49 5.44a.499.499 0 0 1 .428-.244h13.15c1.286 0 2.307-.001 3.078.113.782.115 1.422.363 1.836.957.414.593.427 1.28.266 2.053-.16.763-.513 1.721-.957 2.929l-1.14 3.104c-.23.622-.415 1.128-.611 1.521-.202.404-.436.732-.787.976-.351.245-.74.353-1.188.403-.436.049-.975.048-1.638.048H9.43c-.7 0-1.267 0-1.724-.053-.47-.054-.875-.17-1.235-.436-.36-.265-.59-.619-.782-1.051-.185-.421-.352-.963-.558-1.631L1.92 3.747a.5.5 0 0 1 .33-.625Zm3.834 10.71c.213.691.362 1.168.518 1.524.152.344.292.526.46.65.17.125.384.205.757.248.386.044.886.046 1.609.046h6.498c.686 0 1.16-.001 1.527-.042.355-.04.562-.114.727-.229.164-.115.305-.284.464-.603.166-.331.33-.775.567-1.42l1.14-3.103c.455-1.238.776-2.114.916-2.788.139-.663.078-1.015-.105-1.277s-.493-.442-1.163-.54c-.681-.1-1.614-.102-2.933-.102H3.918a.499.499 0 0 1-.208-.047l2.376 7.684Z" clip-rule="evenodd"></path>
</svg>