<svg viewBox="0 0 24 24" width="24" height="24" fill="currentColor" stroke="none">
    <path fill-rule="evenodd" d="M13.083 12.01a7.715 7.715 0 0 1 7.317 7.704 3.086 3.086 0 0 1-3.085 3.086H6.686l-.16-.004A3.087 3.087 0 0 1 3.6 19.714 7.715 7.715 0 0 1 11.315 12h1.372l.396.01Zm-1.768.99A6.714 6.714 0 0 0 4.6 19.714c0 1.152.934 2.086 2.086 2.086h10.627a2.086 2.086 0 0 0 2.086-2.086A6.715 6.715 0 0 0 12.687 13h-1.372ZM12 1.2a4.8 4.8 0 1 1 0 9.599 4.8 4.8 0 0 1 0-9.6Zm0 1a3.8 3.8 0 1 0 0 7.6 3.8 3.8 0 0 0 0-7.6Z" clip-rule="evenodd"></path>
</svg>