<svg viewBox="0 0 19 20" width="20" height="20" fill="#11C02F" stroke="none">
    <path d="m11.293.673-.57-.08a9.167 9.167 0 0 0-5.042.703 9.123 9.123 0 0 0-3.88 3.282 9.034 9.034 0 0 0-.71 9.623 1.29 1.29 0 0 1 .1.996C.78 16.6.4 18.016 0 19.5l.5-.15c1.35-.358 2.7-.717 4.051-1.045.285-.06.582-.032.85.08a9.483 9.483 0 0 0 11.088-2.07 9.377 9.377 0 0 0 1.202-11.17 9.428 9.428 0 0 0-2.713-2.925A9.473 9.473 0 0 0 11.293.673Zm2.52 13.07a2.764 2.764 0 0 1-2.72.557 9.2 9.2 0 0 1-5.131-3.696 8.455 8.455 0 0 1-1.11-2.071 2.47 2.47 0 0 1 .55-2.51 1.23 1.23 0 0 1 1.32-.42c.2.05.34.34.52.559.147.411.317.813.51 1.205a.933.933 0 0 1-.2 1.305c-.45.398-.38.727-.06 1.175a6.696 6.696 0 0 0 2.82 2.312c.32.139.561.169.771-.16.09-.13.21-.239.31-.359.58-.727.4-.717 1.32-.318.294.123.577.265.85.428.27.16.68.329.74.568a1.438 1.438 0 0 1-.49 1.424Z"></path>
</svg>