<svg width="25" height="19" viewBox="0 0 25 19" fill="none"
    xmlns="http://www.w3.org/2000/svg">
    <path fill-rule="evenodd" clip-rule="evenodd" d="M14.2778 13.634L0 13.577V19L14.3015 18.9997L14.2778 13.634L17.4008 18.993L25 18.9994L21.0506 11.9812C20.6005 11.1815 20.0268 10.3077 19.679 9.54418C20.0925 8.42816 24.6484 0.976581 24.988 0.00480804L17.332 0.00816444C17.0476 0.833117 14.867 4.42694 14.2989 5.39776L14.3141 0L0 0.00816444V5.43015L14.2989 5.39776L11.993 9.30382L11.9882 7.10453L0 7.06529V11.9477L11.9888 11.9472L11.9994 9.61162C12.4103 10.2444 14.1085 13.0632 14.2778 13.634Z" fill="#2ac84d"/>
</svg>
